<svg width="34" height="34" viewBox="0 0 34 34" fill="none" xmlns="http://www.w3.org/2000/svg">
<path d="M19.2427 9.19463L25 9.19463" stroke="#FCFCFC" stroke-linecap="round"/>
<path d="M22.1213 12.0733V6.31595" stroke="#FCFCFC" stroke-linecap="round"/>
<rect x="6" y="15.7097" width="17.8064" height="9.29032" rx="1.5" fill="#FCFCFC"/>
<path d="M11.5178 17.1138C11.2371 16.9734 11.0981 16.6516 11.1882 16.351L11.6484 14.817C11.972 13.7386 12.9646 13 14.0905 13H14.5161H15.7896C16.676 13 17.4928 13.4806 17.9232 14.2555L18.8603 15.9421C19.0243 16.2374 18.9091 16.61 18.6069 16.7611C18.4661 16.8315 18.3032 16.843 18.1539 16.7933L17.9632 16.7297C17.5228 16.5829 17.2258 16.1708 17.2258 15.7065V15.4162C17.2258 14.6921 16.7022 14.0741 15.988 13.955L15.0783 13.8034C14.9618 13.784 14.8438 13.7742 14.7257 13.7742H14.4945C13.4375 13.7742 12.5806 14.6311 12.5806 15.6881V16.3925C12.5806 16.6858 12.4149 16.9538 12.1526 17.085L12.0951 17.1138C11.9134 17.2046 11.6995 17.2046 11.5178 17.1138Z" fill="#FCFCFC"/>
</svg>
