<svg width="8" height="13" viewBox="0 0 8 13" fill="none" xmlns="http://www.w3.org/2000/svg">
<path d="M3.29688 8.65341V8.54545C3.30445 7.84091 3.37453 7.2803 3.5071 6.86364C3.64347 6.44697 3.83665 6.10985 4.08665 5.85227C4.33665 5.5947 4.63778 5.35985 4.99006 5.14773C5.21733 5.00379 5.42188 4.8428 5.60369 4.66477C5.78551 4.48674 5.92945 4.2822 6.03551 4.05114C6.14157 3.82008 6.1946 3.56439 6.1946 3.28409C6.1946 2.94697 6.11506 2.6553 5.95597 2.40909C5.79688 2.16288 5.58475 1.97348 5.3196 1.84091C5.05824 1.70455 4.76657 1.63636 4.4446 1.63636C4.15294 1.63636 3.87453 1.69697 3.60938 1.81818C3.34422 1.93939 3.12453 2.12879 2.95028 2.38636C2.77604 2.64015 2.67566 2.9678 2.64915 3.36932H0.921875C0.94839 2.6875 1.12074 2.11174 1.43892 1.64205C1.7571 1.16856 2.17756 0.810606 2.70028 0.568181C3.2268 0.325757 3.80824 0.204545 4.4446 0.204545C5.14157 0.204545 5.75142 0.335227 6.27415 0.596591C6.79688 0.854166 7.20218 1.21591 7.49006 1.68182C7.78172 2.14394 7.92756 2.68371 7.92756 3.30114C7.92756 3.72538 7.86127 4.10795 7.72869 4.44886C7.59612 4.78598 7.40672 5.08712 7.16051 5.35227C6.91809 5.61742 6.62642 5.85227 6.28551 6.05682C5.96354 6.25758 5.70218 6.46591 5.50142 6.68182C5.30445 6.89773 5.16051 7.15341 5.0696 7.44886C4.97869 7.74432 4.92945 8.10985 4.92188 8.54545V8.65341H3.29688ZM4.15483 12.108C3.84422 12.108 3.57718 11.9981 3.35369 11.7784C3.13021 11.5549 3.01847 11.286 3.01847 10.9716C3.01847 10.661 3.13021 10.3958 3.35369 10.1761C3.57718 9.95265 3.84422 9.84091 4.15483 9.84091C4.46165 9.84091 4.7268 9.95265 4.95028 10.1761C5.17756 10.3958 5.29119 10.661 5.29119 10.9716C5.29119 11.1799 5.23816 11.3712 5.1321 11.5455C5.02983 11.7159 4.89347 11.8523 4.72301 11.9545C4.55256 12.0568 4.36316 12.108 4.15483 12.108Z" fill="#FCFCFC"/>
</svg>
