<svg width="14" height="14" viewBox="0 0 14 14" fill="none" xmlns="http://www.w3.org/2000/svg">
<g clip-path="url(#clip0_147_391)">
<path d="M13.2922 2.4995H0.707777C0.316891 2.4995 0 2.81639 0 3.20727V4.01296H14V3.20727C14 2.81639 13.6831 2.4995 13.2922 2.4995Z" fill="#FCFCFC"/>
<path d="M0 10.7927C0 11.1836 0.316891 11.5005 0.707777 11.5005H13.2922C13.6831 11.5005 14 11.1836 14 10.7927V6.08253H0V10.7927ZM6.01556 9.9204H5.12628C4.87225 9.9204 4.66631 9.71446 4.66631 9.46043C4.66631 9.2064 4.87225 9.00045 5.12628 9.00045H6.01556C6.26959 9.00045 6.47554 9.2064 6.47554 9.46043C6.47554 9.71446 6.26959 9.9204 6.01556 9.9204ZM10.6857 9.00045H12.127C12.381 9.00045 12.5869 9.2064 12.5869 9.46043C12.5869 9.71446 12.381 9.9204 12.127 9.9204H10.6857C10.4317 9.9204 10.2257 9.71446 10.2257 9.46043C10.2257 9.2064 10.4317 9.00045 10.6857 9.00045ZM9.29671 9.46043C9.29671 9.71446 9.09076 9.9204 8.83674 9.9204H7.94745C7.69343 9.9204 7.48748 9.71446 7.48748 9.46043C7.48748 9.2064 7.69343 9.00045 7.94745 9.00045H8.83674C9.09076 9.00045 9.29671 9.2064 9.29671 9.46043ZM1.80537 7.25255H8.6743C8.92833 7.25255 9.13428 7.4585 9.13428 7.71253C9.13428 7.96656 8.92833 8.1725 8.6743 8.1725H1.80537C1.55134 8.1725 1.34539 7.96656 1.34539 7.71253C1.34539 7.4585 1.55134 7.25255 1.80537 7.25255ZM1.80537 9.00045H3.24662C3.50064 9.00045 3.70659 9.2064 3.70659 9.46043C3.70659 9.71446 3.50067 9.9204 3.24662 9.9204H1.80537C1.55134 9.9204 1.34539 9.71446 1.34539 9.46043C1.34539 9.2064 1.55134 9.00045 1.80537 9.00045Z" fill="#FCFCFC"/>
</g>
<defs>
<clipPath id="clip0_147_391">
<rect width="14" height="14" fill="white"/>
</clipPath>
</defs>
</svg>
