<svg width="11" height="16" viewBox="0 0 11 16" fill="none" xmlns="http://www.w3.org/2000/svg">
<path d="M10.3658 10.4094C10.294 9.66887 10.0809 8.89541 9.74937 8.17288C9.44862 7.51483 9.05395 6.88538 8.57728 6.30355C8.44335 6.1392 8.30728 5.9818 8.23701 5.90921L8.07514 5.7323C8.03563 5.687 8.00239 5.65062 7.96949 5.61838L7.92105 5.56927C7.86814 5.51604 7.81357 5.46081 7.76827 5.40559C7.7648 5.40112 7.761 5.39683 7.75703 5.39253C7.73504 5.36839 7.71139 5.34425 7.68494 5.3173C7.65055 5.28241 7.61153 5.24356 7.57681 5.19991C7.57234 5.19445 7.56771 5.18916 7.56309 5.1837C7.3164 4.91255 7.1089 4.66603 6.92901 4.43058C6.71837 4.15331 6.56956 3.92398 6.44589 3.6849C6.3027 3.41259 6.19556 3.10952 6.12777 2.78182C6.06346 2.48503 6.02592 2.14443 6.01584 1.76828C6.00592 1.4343 6.02625 1.11337 6.04725 0.845689C6.06246 0.667453 6.07966 0.50972 6.09652 0.370338C6.10959 0.26171 6.06809 0.153578 5.98558 0.0816555C5.90291 0.00956748 5.79015 -0.0170522 5.6845 0.0108902C5.52676 0.0520597 5.36506 0.106622 5.20501 0.172758C4.86888 0.309824 4.5382 0.500461 4.22174 0.740038C3.81814 1.04641 3.46448 1.42487 3.17084 1.86418C2.8104 2.40104 2.55528 3.03247 2.43343 3.68804C2.29438 4.40942 2.30975 5.22338 2.47641 5.97866C2.63464 6.70979 2.94102 7.45646 3.36363 8.14014C3.587 8.49612 3.80111 8.79373 4.01308 9.04355C4.07624 9.12209 4.25018 9.32513 4.252 9.32744L4.32144 9.40697C4.37005 9.46203 4.40477 9.50353 4.44015 9.54586C4.47289 9.58471 4.49984 9.61695 4.52993 9.64903L4.53506 9.65432C4.86574 10.0498 5.09886 10.3401 5.29132 10.5971C5.50395 10.8798 5.69095 11.1539 5.86273 11.4347C6.04576 11.7346 6.17655 11.9968 6.2741 12.2589C6.38421 12.557 6.45663 12.8801 6.4902 13.2205C6.52112 13.5201 6.52128 13.8561 6.49102 14.2456C6.4606 14.599 6.40554 14.921 6.36222 15.157C6.32982 15.3184 6.29807 15.4673 6.26914 15.596C6.24467 15.7049 6.27658 15.819 6.35445 15.899C6.41745 15.964 6.50309 15.9992 6.59188 15.9992C6.61288 15.9992 6.63404 15.9972 6.65504 15.9933C6.81029 15.9628 6.95976 15.9232 7.10774 15.8729C7.4533 15.7605 7.79423 15.597 8.11995 15.3881C8.54256 15.1209 8.92383 14.7784 9.25335 14.3708C9.65281 13.8768 9.96481 13.2837 10.1554 12.6562C10.3692 11.9582 10.4421 11.1807 10.3658 10.4094Z" fill="#FCFCFC"/>
<path d="M3.88278 12.4345C3.74505 12.1333 3.56484 11.8456 3.34807 11.5812C3.29351 11.5142 3.22754 11.4373 3.1953 11.4039L3.11908 11.3206C3.09924 11.2983 3.08485 11.2827 3.06964 11.2674L3.04881 11.2464C3.02467 11.2222 3.00053 11.1976 2.98003 11.1731C2.97639 11.1688 2.97259 11.1644 2.96862 11.1602L2.94002 11.1305C2.92332 11.1133 2.90695 11.0966 2.89289 11.079C2.88926 11.0746 2.88545 11.0701 2.88149 11.0658C2.77253 10.9463 2.67878 10.835 2.59628 10.7274C2.5265 10.6349 2.44565 10.5223 2.37422 10.3848C2.30892 10.2605 2.26031 10.1226 2.22906 9.97227C2.19996 9.83718 2.18293 9.68176 2.1783 9.51031C2.17416 9.36795 2.1821 9.23336 2.18855 9.14458C2.19698 9.02735 2.14242 8.91426 2.0452 8.84796C1.94798 8.78166 1.82298 8.77207 1.71667 8.82249C1.59432 8.88086 1.47412 8.95427 1.35904 9.04124C1.17485 9.18128 1.01348 9.3539 0.879886 9.55396C0.76514 9.72475 0.613524 10.0081 0.543254 10.3856C0.479599 10.7156 0.486377 11.0876 0.562434 11.4319C0.634687 11.766 0.774564 12.1071 0.968177 12.4204C1.07019 12.5826 1.16774 12.7184 1.26165 12.8292C1.28927 12.8634 1.34912 12.9327 1.37574 12.9636L1.37524 12.9641L1.40467 12.9975C1.42799 13.0238 1.44435 13.0433 1.46039 13.0628C1.47428 13.0798 1.48619 13.0939 1.49726 13.1054L1.50239 13.1109C1.6044 13.2328 1.73585 13.392 1.84811 13.5419C1.94566 13.6714 2.03081 13.7964 2.10869 13.9242C2.19186 14.0601 2.25154 14.1797 2.29602 14.2994C2.34628 14.4356 2.37952 14.5836 2.39489 14.74C2.40895 14.8764 2.40895 15.0298 2.39539 15.2054C2.38646 15.3098 2.37174 15.4199 2.35091 15.5421C2.33058 15.6603 2.37604 15.7803 2.46946 15.8555C2.52915 15.9033 2.60256 15.9283 2.6768 15.9283C2.71863 15.9283 2.76095 15.9204 2.80097 15.9042C2.91604 15.8574 3.02996 15.7978 3.13743 15.7289C3.33038 15.6074 3.50482 15.4506 3.6561 15.2638C3.83831 15.0386 3.98066 14.7678 4.0678 14.4814C4.16419 14.1668 4.19825 13.8022 4.16419 13.4553C4.13112 13.1172 4.0339 12.7642 3.88278 12.4345Z" fill="#FCFCFC"/>
</svg>
