<svg width="20" height="20" viewBox="0 0 20 20" fill="none" xmlns="http://www.w3.org/2000/svg">
<path fill-rule="evenodd" clip-rule="evenodd" d="M9.99999 17.7419C14.2757 17.7419 17.7419 14.2757 17.7419 9.99999C17.7419 5.72424 14.2757 2.25806 9.99999 2.25806C5.72424 2.25806 2.25806 5.72424 2.25806 9.99999C2.25806 14.2757 5.72424 17.7419 9.99999 17.7419ZM9.99999 14.5161C12.4942 14.5161 14.5161 12.4942 14.5161 9.99999C14.5161 7.5058 12.4942 5.48386 9.99999 5.48386C7.5058 5.48386 5.48386 7.5058 5.48386 9.99999C5.48386 12.4942 7.5058 14.5161 9.99999 14.5161Z" fill="#008193"/>
<path d="M7.86462 1.50024C8.09253 0.617088 8.88908 0 9.80117 0H10.1073C10.984 0 11.7584 0.57093 12.0178 1.40836L12.5806 3.22581H7.41931L7.86462 1.50024Z" fill="#008193"/>
<path d="M18.4998 7.86465C19.3829 8.09256 20 8.88911 20 9.8012L20 10.1073C20 10.984 19.4291 11.7585 18.5916 12.0178L16.7742 12.5806L16.7742 7.41934L18.4998 7.86465Z" fill="#008193"/>
<path d="M14.5639 2.58811C15.3468 2.10922 16.3551 2.22459 17.0096 2.86795L17.0634 2.92079C17.6932 3.53995 17.8424 4.49895 17.4303 5.28015L16.6024 6.84973L13.1482 3.45414L14.5639 2.58811Z" fill="#008193"/>
<path d="M17.4545 14.4939C17.9407 15.2723 17.8348 16.2817 17.1977 16.9422L17.1453 16.9964C16.5321 17.6321 15.5746 17.7902 14.7895 17.3856L13.2122 16.5725L16.5751 13.0864L17.4545 14.4939Z" fill="#008193"/>
<path d="M12.1354 18.4998C11.9075 19.3829 11.1109 20 10.1988 20H9.89271C9.01604 20 8.24155 19.4291 7.98222 18.5916L7.4194 16.7742H12.5807L12.1354 18.4998Z" fill="#008193"/>
<path d="M1.50024 12.1354C0.617088 11.9074 6.42457e-08 11.1109 1.04114e-07 10.1988L1.17495e-07 9.89268C1.55816e-07 9.01601 0.57093 8.24152 1.40836 7.98219L3.22581 7.41937L3.22581 12.5807L1.50024 12.1354Z" fill="#008193"/>
<path d="M5.43608 17.4119C4.65321 17.8908 3.64486 17.7754 2.99039 17.132L2.93663 17.0792C2.30678 16.46 2.15762 15.501 2.56968 14.7198L3.39757 13.1502L6.85183 16.5458L5.43608 17.4119Z" fill="#008193"/>
<path d="M2.54542 5.50608C2.05918 4.72775 2.16506 3.71836 2.80223 3.05787L2.85456 3.00361C3.46777 2.36796 4.42532 2.20979 5.21036 2.61447L6.78766 3.42756L3.42473 6.91362L2.54542 5.50608Z" fill="#008193"/>
</svg>
