<svg width="33" height="33" viewBox="0 0 33 33" fill="none" xmlns="http://www.w3.org/2000/svg">
    <path d="M20.0858 6.15909L24.1569 10.2302" stroke="#FCFCFC" stroke-linecap="round"/>
    <path d="M20.0858 10.2302L24.1569 6.15909" stroke="#FCFCFC" stroke-linecap="round"/>
    <rect x="6" y="14.783" width="17.8064" height="9.29032" rx="1.5" fill="#FCFCFC"/>
    <path d="M11.5178 16.187C11.2371 16.0467 11.0981 15.7249 11.1882 15.4243L11.6484 13.8903C11.972 12.8118 12.9646 12.0733 14.0905 12.0733H14.5161H15.7896C16.676 12.0733 17.4928 12.5539 17.9232 13.3287L18.8603 15.0154C19.0243 15.3107 18.9091 15.6832 18.6069 15.8343C18.4661 15.9047 18.3032 15.9163 18.1539 15.8665L17.9632 15.803C17.5228 15.6562 17.2258 15.244 17.2258 14.7798V14.4895C17.2258 13.7653 16.7022 13.1473 15.988 13.0283L15.0783 12.8767C14.9618 12.8573 14.8438 12.8475 14.7257 12.8475H14.4945C13.4375 12.8475 12.5806 13.7044 12.5806 14.7614V15.4658C12.5806 15.759 12.4149 16.0271 12.1526 16.1582L12.0951 16.187C11.9134 16.2779 11.6995 16.2779 11.5178 16.187Z" fill="#FCFCFC"/>
</svg>
